<!DOCTYPE svg PUBLIC "-//W3C//DTD SVG 20010904//EN" "http://www.w3.org/TR/2001/REC-SVG-20010904/DTD/svg10.dtd">
<svg version="1.0" xmlns="http://www.w3.org/2000/svg" width="1600px" height="285px" viewBox="0 0 16000 2850" preserveAspectRatio="xMidYMid meet">
<g id="layer101" fill="#db1b29" stroke="none">
 <path d="M111 2818 c-52 -26 -96 -89 -105 -152 -12 -76 8 -127 99 -259 46 -67 110 -160 142 -207 32 -47 143 -209 247 -360 105 -151 200 -300 213 -330 27 -67 30 -156 6 -226 -18 -53 -63 -124 -398 -614 -122 -179 -230 -341 -241 -360 -37 -72 -15 -190 48 -246 47 -43 87 -56 158 -52 113 6 107 -1 461 519 174 255 328 487 342 514 55 111 72 189 72 340 0 219 -31 304 -197 545 -52 74 -188 272 -302 440 -287 419 -293 427 -341 450 -57 28 -146 27 -204 -2z"/>
 <path d="M2870 2820 c-19 -10 -47 -31 -61 -47 -20 -21 -411 -587 -673 -973 -137 -202 -153 -524 -37 -751 30 -61 449 -687 621 -928 57 -82 109 -111 192 -111 103 0 185 63 208 162 21 86 7 118 -183 396 -374 547 -435 639 -458 682 -20 38 -24 59 -24 136 0 82 3 96 31 150 17 32 176 270 353 528 178 258 327 482 332 500 30 104 -29 229 -124 265 -45 17 -137 13 -177 -9z"/>
 <path d="M1495 1664 c-99 -35 -167 -132 -167 -239 0 -178 178 -299 353 -240 61 21 109 63 143 125 73 133 3 305 -143 355 -55 18 -133 18 -186 -1z"/>
 </g>
<g id="layer102" fill="#09426a" stroke="none">
 <path d="M188 2843 c18 -2 45 -2 60 0 15 2 0 4 -33 4 -33 0 -45 -2 -27 -4z"/>
 <path d="M2943 2843 c15 -2 37 -2 50 0 12 2 0 4 -28 4 -27 0 -38 -2 -22 -4z"/>
 <path d="M4520 2838 c-187 -41 -292 -82 -413 -161 -242 -158 -402 -402 -451 -686 -13 -77 -16 -174 -16 -517 l0 -422 28 -53 c39 -76 103 -114 186 -114 68 1 106 17 154 66 60 61 62 80 62 529 0 226 4 431 10 461 5 30 30 95 54 144 73 147 203 258 361 308 66 21 88 22 395 22 361 0 385 -3 510 -63 103 -50 211 -158 263 -263 63 -128 67 -164 67 -614 l0 -400 24 -52 c34 -73 87 -106 176 -111 97 -6 159 29 206 118 17 32 19 66 22 385 5 522 -10 646 -103 844 -55 115 -112 196 -201 283 -158 155 -317 240 -539 287 -90 19 -129 21 -425 20 -179 -1 -345 -6 -370 -11z"/>
 <path d="M7020 2828 c-53 -30 -81 -59 -101 -103 -18 -38 -19 -82 -19 -797 0 -742 0 -758 21 -813 59 -159 242 -254 407 -211 142 36 183 85 332 390 65 133 188 385 275 561 86 176 179 365 205 421 27 55 55 106 63 113 9 7 31 11 49 9 32 -3 35 -7 133 -203 55 -110 164 -331 242 -490 312 -639 324 -663 370 -709 81 -83 197 -119 305 -97 118 24 198 85 255 193 l28 53 3 758 c2 493 -1 771 -8 796 -12 45 -62 103 -113 131 -49 26 -125 26 -176 1 -41 -22 -96 -78 -114 -120 -8 -18 -13 -185 -17 -570 l-5 -545 -127 260 c-375 767 -366 752 -429 818 -189 203 -502 209 -701 13 -55 -54 -70 -81 -279 -505 -121 -246 -234 -477 -252 -514 -17 -38 -34 -68 -39 -68 -4 0 -8 244 -8 543 0 506 -2 545 -19 582 -49 107 -187 157 -281 103z"/>
 <path d="M10149 2830 c-72 -38 -129 -124 -129 -194 0 -55 36 -117 238 -412 893 -1306 843 -1235 912 -1279 106 -66 248 -73 360 -18 79 39 115 76 212 218 41 61 272 397 512 749 241 351 442 650 447 665 13 34 13 118 0 152 -5 15 -24 43 -42 63 -91 104 -237 100 -324 -9 -17 -22 -139 -197 -270 -390 -562 -823 -677 -991 -688 -1002 -9 -9 -126 156 -497 699 -445 652 -489 713 -537 744 -43 28 -61 34 -105 34 -32 -1 -67 -8 -89 -20z"/>
 <path d="M13252 2825 c-47 -26 -72 -52 -100 -100 -16 -28 -17 -114 -17 -1290 0 -693 3 -1272 8 -1288 10 -37 72 -104 118 -128 94 -48 218 -2 271 100 l28 53 0 520 0 520 373 -4 c412 -5 441 -9 602 -80 67 -30 94 -56 600 -559 292 -290 547 -537 568 -548 55 -31 120 -28 182 8 57 32 64 39 94 94 15 27 21 55 21 98 0 51 -5 67 -29 102 -16 23 -268 280 -560 572 l-531 530 539 540 c296 297 548 554 560 572 41 61 24 177 -37 246 -55 62 -168 85 -240 48 -21 -11 -267 -250 -556 -540 -551 -552 -552 -553 -696 -601 -128 -43 -205 -50 -557 -50 l-333 0 0 518 0 517 -25 52 c-19 41 -36 60 -79 88 -70 45 -138 48 -204 10z"/>
 <path d="M2 2680 c0 -14 2 -19 5 -12 2 6 2 18 0 25 -3 6 -5 1 -5 -13z"/>
 <path d="M2 2580 c0 -14 2 -19 5 -12 2 6 2 18 0 25 -3 6 -5 1 -5 -13z"/>
 <path d="M243 3 c15 -2 39 -2 55 0 15 2 2 4 -28 4 -30 0 -43 -2 -27 -4z"/>
 <path d="M2883 3 c15 -2 39 -2 55 0 15 2 2 4 -28 4 -30 0 -43 -2 -27 -4z"/>
 </g>

</svg>